<?xml version="1.0" encoding="UTF-8"?>
<!DOCTYPE svg PUBLIC "-//W3C//DTD SVG 1.1//EN" "http://www.w3.org/Graphics/SVG/1.1/DTD/svg11.dtd">
<!-- Creator: CorelDRAW X6 -->
<svg xmlns="http://www.w3.org/2000/svg" xml:space="preserve" width="565px" height="565px" version="1.1" style="shape-rendering:geometricPrecision; text-rendering:geometricPrecision; image-rendering:optimizeQuality; fill-rule:evenodd; clip-rule:evenodd"
viewBox="0 0 17293 17293"
 xmlns:xlink="http://www.w3.org/1999/xlink">
 <defs>
  <style type="text/css">
   <![CDATA[
    .fil0 {fill:black}
   ]]>
  </style>
 </defs>
 <g id="Layer_x0020_1">
  <metadata id="CorelCorpID_0Corel-Layer"/>
  <path class="fil0" d="M8890 6064c-84,428 -79,862 -64,1252 261,36 504,144 704,318l197 -203c1172,-1212 2441,-2524 4007,-2573 728,-23 1417,197 1989,591 582,402 1042,984 1297,1674 554,1502 200,2994 -480,3934 -230,317 -497,572 -779,744 -284,173 -584,262 -877,246 -474,-26 -928,-327 -1264,-989 -158,-311 -332,-592 -518,-844 -196,-267 -406,-501 -625,-706 -377,-354 -810,-532 -1247,-617 -428,-84 -862,-79 -1252,-64 -36,259 -147,506 -319,704 62,60 132,128 203,197 1212,1172 2524,2441 2573,4007 23,728 -197,1417 -591,1989 -402,582 -984,1042 -1674,1297 -1502,554 -2994,200 -3934,-480 -317,-230 -572,-497 -744,-779 -173,-284 -262,-584 -246,-877 26,-474 327,-928 989,-1264 311,-158 592,-332 844,-518 267,-196 501,-406 706,-625 354,-377 532,-810 617,-1247 84,-428 79,-862 64,-1252 -262,-36 -505,-145 -704,-319l-197 203c-1172,1212 -2441,2524 -4007,2573 -728,23 -1417,-197 -1989,-591 -582,-402 -1042,-984 -1297,-1674 -554,-1502 -200,-2994 480,-3934 230,-317 497,-572 779,-744 284,-173 584,-262 877,-246 474,26 928,327 1264,989 158,311 332,592 518,844 196,267 406,501 625,706 377,354 810,532 1248,617 428,84 862,79 1252,64 35,-262 142,-502 318,-704 -61,-59 -132,-128 -203,-197 -1212,-1172 -2524,-2441 -2573,-4007 -23,-728 197,-1417 591,-1989 402,-582 984,-1042 1674,-1297 1502,-554 2994,-200 3934,480 317,230 572,497 744,779 173,284 262,584 246,877 -26,474 -327,928 -989,1264 -311,158 -592,332 -844,518 -267,196 -501,406 -706,625 -354,377 -532,810 -618,1248zm-662 1932c-359,231 -463,710 -231,1069 231,359 710,463 1069,231 359,-231 463,-710 231,-1069 -231,-359 -710,-463 -1069,-231z"/>
 </g>
</svg>
